<svg xmlns="http://www.w3.org/2000/svg" width="55.975" height="64" viewBox="0 0 55.975 64">
  <g id="Group_2" data-name="Group 2" transform="translate(-81.019 -2088)" opacity="0.87">
    <g id="Path_52" data-name="Path 52" transform="translate(-75.277 1190.81)" fill="none" stroke-linecap="round" stroke-linejoin="round" opacity="0.87">
      <path d="M208.134,931.165v27.17c0,1.576-1.7,2.854-3.8,2.854H190.8V945.277a1.962,1.962,0,0,0-2.045-1.913H179.81a1.963,1.963,0,0,0-2.046,1.913V961.19H164.228c-2.1,0-3.8-1.278-3.8-2.854v-27.17c0-1.576,1.7-2.854,3.8-2.854h40.108C206.433,928.311,208.134,929.589,208.134,931.165Z" stroke="none"/>
      <path d="M 164.2276763916016 930.31201171875 C 163.0567169189453 930.31201171875 162.4250183105469 930.9181518554688 162.4250183105469 931.166015625 L 162.4250183105469 958.3359985351563 C 162.4250183105469 958.5968627929688 163.1060638427734 959.1900024414063 164.2276763916016 959.1900024414063 L 175.7641143798828 959.1900024414063 L 175.7641143798828 945.2769775390625 C 175.7641143798828 945.197509765625 175.7688446044922 945.1181640625 175.7782897949219 945.0392456054688 C 176.0300750732422 942.9359741210938 177.6736755371094 941.349853515625 179.6014404296875 941.349853515625 C 179.7064208984375 941.349853515625 179.8122253417969 941.3546142578125 179.9175262451172 941.364013671875 L 188.6465911865234 941.364013671875 C 188.7519073486328 941.3546142578125 188.8577117919922 941.349853515625 188.9627075195313 941.349853515625 C 190.889892578125 941.349853515625 192.5330505371094 942.9359741210938 192.7848510742188 945.0392456054688 C 192.7942962646484 945.1181640625 192.7990264892578 945.197509765625 192.7990264892578 945.2769775390625 L 192.7990264892578 959.1890258789063 L 204.3313446044922 959.1890258789063 C 205.5023040771484 959.1890258789063 206.1340026855469 958.5828857421875 206.1340026855469 958.3350219726563 L 206.1340026855469 931.1649780273438 C 206.1340026855469 930.9174194335938 205.5046234130859 930.31201171875 204.33544921875 930.31201171875 L 164.2276763916016 930.31201171875 M 204.3379821777344 928.31201171875 C 206.4345703125 928.31201171875 208.1340026855469 929.5895385742188 208.1340026855469 931.1649780273438 L 208.1340026855469 958.3350219726563 C 208.1340026855469 959.9110107421875 206.4330902099609 961.1890258789063 204.3313446044922 961.1890258789063 L 190.7990264892578 961.1890258789063 L 190.7990264892578 945.2769775390625 C 190.6652679443359 944.15966796875 189.8742218017578 943.349853515625 188.9627075195313 943.349853515625 C 188.8936462402344 943.349853515625 188.8240203857422 943.3544921875 188.7537994384766 943.364013671875 L 179.8103637695313 943.364013671875 C 179.7402038574219 943.3544921875 179.6704559326172 943.349853515625 179.6014404296875 943.349853515625 C 178.6897277832031 943.349853515625 177.8978729248047 944.1596069335938 177.7641143798828 945.2769775390625 L 177.7641143798828 961.1900024414063 L 164.2276763916016 961.1900024414063 C 162.1300354003906 961.1900024414063 160.4250183105469 959.9119873046875 160.4250183105469 958.3359985351563 L 160.4250183105469 931.166015625 C 160.4250183105469 929.5900268554688 162.1259307861328 928.31201171875 164.2276763916016 928.31201171875 L 204.33544921875 928.31201171875 C 204.3362121582031 928.31201171875 204.3372192382813 928.31201171875 204.3379821777344 928.31201171875 Z" stroke="none" fill="#fff"/>
    </g>
    <g id="Path_54" data-name="Path 54" transform="translate(-75.277 1189.337)" fill="none" stroke-linecap="round" stroke-linejoin="round" opacity="0.87">
      <path d="M182.562,899.283l-25.508,21.865a2.126,2.126,0,0,0-.125,3.143,2.454,2.454,0,0,0,1.845.709h51.018a2.319,2.319,0,0,0,2.475-2.127,2.155,2.155,0,0,0-.754-1.725l-25.508-21.865A2.7,2.7,0,0,0,182.562,899.283Z" stroke="none"/>
      <path d="M 184.2836456298828 900.6627197265625 C 184.1202087402344 900.6627197265625 183.9688720703125 900.714111328125 183.8570098876953 900.8074951171875 L 158.3631591796875 922.6604614257813 C 158.3195343017578 922.6991577148438 158.2967224121094 922.737548828125 158.2953338623047 922.7745361328125 C 158.2948608398438 922.7872314453125 158.2934112548828 922.8258666992188 158.3513336181641 922.8843994140625 C 158.4243316650391 922.9581298828125 158.5432281494141 923.002197265625 158.6693725585938 923.002197265625 C 158.6768493652344 923.002197265625 158.6843566894531 923.0020141601563 158.6918792724609 923.001708984375 C 158.7195892333984 923.0005493164063 158.7473297119141 923 158.7750701904297 923 L 209.7929992675781 923 C 209.8199462890625 923 209.8468933105469 923.0005493164063 209.8738250732422 923.0016479492188 C 209.8816375732422 923.001953125 209.8894195556641 923.0021362304688 209.8971710205078 923.0021362304688 C 210.1152496337891 923.0021362304688 210.2660217285156 922.8692626953125 210.2701721191406 922.7787475585938 C 210.2718658447266 922.7428588867188 210.2465667724609 922.6980590820313 210.2022705078125 922.658203125 L 184.7112426757813 900.8076782226563 C 184.5988159179688 900.7141723632813 184.4471588134766 900.6627197265625 184.2836456298828 900.6627197265625 M 184.2836456298828 898.6627807617188 C 184.8999481201172 898.6627807617188 185.5163879394531 898.8695068359375 186.0056457519531 899.2830200195313 L 211.5135803222656 921.1480102539063 C 212.0222930908203 921.5919799804688 212.2986450195313 922.2219848632813 212.2679443359375 922.8729858398438 C 212.2131500244141 924.068359375 211.1614074707031 925.0020751953125 209.8971710205078 925.0020751953125 C 209.8626098632813 925.0020751953125 209.8278656005859 925.0014038085938 209.7929992675781 925 L 158.7750701904297 925 C 158.7397613525391 925.00146484375 158.7045440673828 925.002197265625 158.6693725585938 925.002197265625 C 158.01025390625 925.002197265625 157.3795013427734 924.7457275390625 156.9295959472656 924.291015625 C 156.0370635986328 923.3900146484375 156.0933685302734 921.9829711914063 157.0544738769531 921.1480102539063 L 182.5624084472656 899.2830200195313 C 183.0511627197266 898.8695068359375 183.6673431396484 898.6627807617188 184.2836456298828 898.6627807617188 Z" stroke="none" fill="#fff"/>
    </g>
  </g>
</svg>
