<svg xmlns="http://www.w3.org/2000/svg" width="35.967" height="48.614" viewBox="0 0 35.967 48.614">
  <g id="Group_71" data-name="Group 71" opacity="0.8">
    <g id="Group_70" data-name="Group 70">
      <g id="Group_69" data-name="Group 69">
        <path id="Path_62" data-name="Path 62" d="M505.734,791.179c-.434-.128-.879-.228-1.3-.388a4.282,4.282,0,0,1-2.621-2.243,1.653,1.653,0,0,1,.783-2.212,2.425,2.425,0,0,1,2.18-.174c.746.3,1.509.568,2.226.926a2.943,2.943,0,0,0,3.093-.106,10.187,10.187,0,0,1,1.024-.5c.051,2.26-.613,3.995-2.915,4.517-.194.044-.38.118-.57.179Z" transform="translate(-483.266 -742.565)" fill="#c69c6d"/>
        <path id="Path_63" data-name="Path 63" d="M421.572,790.89c-.347-.087-.7-.167-1.041-.262a3.146,3.146,0,0,1-2.378-2.5c-.144-.641-.239-1.293-.382-2.078a9.574,9.574,0,0,1,.983.5,3.188,3.188,0,0,0,3.677.107,11.573,11.573,0,0,1,2.37-.926,2.1,2.1,0,0,1,2.087.6,1.535,1.535,0,0,1,.336,1.984,4.336,4.336,0,0,1-2.681,2.18c-.5.174-1.031.263-1.548.391Z" transform="translate(-410.02 -742.276)" fill="#c69c6d"/>
        <path id="Path_64" data-name="Path 64" d="M406.2,451.918a.165.165,0,0,1-.022-.042,6.971,6.971,0,0,0-3.317-3.983,26.449,26.449,0,0,0-7.613-3.075,42.793,42.793,0,0,0-8.491-1.339,17.13,17.13,0,0,0-2.488.654,63.285,63.285,0,0,1-7.231,2.68,5.845,5.845,0,0,0-3.938,6.921c.693,2.623,1.53,5.207,2.294,7.811a69.028,69.028,0,0,0,4.306,11.364c.323.65.28.629.967.324a20.266,20.266,0,0,1,2.557-.991,14.4,14.4,0,0,1,9.486.132c1.4.544,2.758,1.175,4.135,1.77.191.082.355.184.529-.063a9.942,9.942,0,0,0,1.8-3.254c.312-1.256.626-2.512.976-3.758.652-2.32,2.146-4.185,3.485-6.1a31.176,31.176,0,0,0,2.52-4.267A4.69,4.69,0,0,0,406.2,451.918ZM378.613,467a25.148,25.148,0,0,1-.932-2.481c-.671-2.529-1.275-5.077-1.905-7.617-.251-1.01-.454-2.036-.772-3.024-.25-.773-.644-1.5-.971-2.25-.1-.231-.189-.468-.283-.7l.147-.08a2.2,2.2,0,0,1,1.118,1.015,9.6,9.6,0,0,1,1.325,3.719c.65,3.184,1.257,6.377,1.9,9.564.123.612.324,1.209.491,1.814Zm2.19-2.91-.119.042a3.688,3.688,0,0,1-.351-.781c-.3-1.564-.617-3.127-.848-4.7-.361-2.453-.615-4.922-1-7.37-.189-1.2-.584-2.358-.861-3.54-.046-.191,0-.577.066-.593.36-.086.37.259.432.483.518,1.871,1.147,3.722,1.5,5.623.37,1.981.472,4.011.688,6.02q.247,2.284.489,4.566A2.4,2.4,0,0,1,380.8,464.094Zm4.922,1.45c-.147-.369-.323-.728-.439-1.107a52.078,52.078,0,0,1-2.1-10.568c-.139-1.6-.191-3.217-.184-4.824a6.375,6.375,0,0,1,1.02-3.549,1.389,1.389,0,0,1,.974-.763,9.638,9.638,0,0,0-1.209,6.533,127.5,127.5,0,0,0,2,13.725c.034.167.039.34.058.511Z" transform="translate(-370.865 -443.48)" fill="#c69c6d"/>
        <path id="Path_65" data-name="Path 65" d="M359.152,716.153c.591.347,1.176.707,1.776,1.039.7.389,1.427.74,2.127,1.135a2.19,2.19,0,0,1,.638.55.6.6,0,0,1,.1.533.772.772,0,0,1-.534.291,1.408,1.408,0,0,1-.631-.172c-1.845-.815-3.69-1.63-5.527-2.462-.532-.241-.589-.441-.323-.974a1.638,1.638,0,0,1,.4-.515,16.9,16.9,0,0,1,4.952-2.812c.088-.033.194-.1.27-.073.244.072.555.12.688.293.079.1-.057.52-.213.632-.7.5-1.44.957-2.172,1.416-.5.315-1.019.611-1.53.915Z" transform="translate(-356.619 -678.564)" fill="#c69c6d"/>
        <path id="Path_66" data-name="Path 66" d="M578.931,711.416c.752.217,1.429.374,2.078.61a8.36,8.36,0,0,1,2.959,1.738c.536.507.564.738-.006,1.164-1.49,1.114-3.01,2.188-4.52,3.274-.274.2-.572.251-.8-.045s-.055-.548.179-.739c.72-.587,1.457-1.154,2.177-1.741a11.966,11.966,0,0,0,1.095-.97c.311-.325.256-.583-.161-.775-.543-.25-1.114-.437-1.662-.676a14.887,14.887,0,0,1-1.611-.779c-.179-.105-.392-.462-.334-.588C578.42,711.68,578.722,711.566,578.931,711.416Z" transform="translate(-550.215 -677.453)" fill="#c69c6d"/>
        <path id="Path_67" data-name="Path 67" d="M446.707,705.58c-.193-.078-.382-.167-.579-.23-.268-.087-.574-.27-.808-.207a14.7,14.7,0,0,0-1.851.693c-.853.36-1.422.091-1.689-.877l.469-.1c.339.644.474.684,1.126.413a17.485,17.485,0,0,1,1.714-.663,1.266,1.266,0,0,1,1.68.8Z" transform="translate(-430.985 -671.437)" fill="#c69c6d"/>
        <path id="Path_68" data-name="Path 68" d="M488.173,769.7a2.969,2.969,0,0,1-1.945-1.365c-.03-.091.026-.3.082-.313a.452.452,0,0,1,.367.063c.3.251.567.547.867.8a.856.856,0,0,0,1.2.016c.327-.271.625-.577.958-.84.1-.079.273-.067.412-.1.019.115.085.246.051.341A3.325,3.325,0,0,1,488.173,769.7Z" transform="translate(-469.792 -726.833)" fill="#c69c6d"/>
        <path id="Path_69" data-name="Path 69" d="M447.9,725a2.032,2.032,0,1,0,1.9,2.028A1.968,1.968,0,0,0,447.9,725Zm.253,2.408c-.21,0-.38-.227-.38-.507s.17-.507.38-.507.38.227.38.507S448.365,727.408,448.155,727.408Z" transform="translate(-434.67 -689.316)" fill="#c69c6d"/>
        <path id="Path_70" data-name="Path 70" d="M519.9,725a2.032,2.032,0,1,0,1.9,2.028A1.968,1.968,0,0,0,519.9,725Zm-.127,2.408c-.21,0-.38-.227-.38-.507s.17-.507.38-.507.38.227.38.507S519.985,727.408,519.774,727.408Z" transform="translate(-497.544 -689.316)" fill="#c69c6d"/>
      </g>
    </g>
  </g>
</svg>
