<svg xmlns="http://www.w3.org/2000/svg" width="50.727" height="48.614" viewBox="0 0 50.727 48.614">
  <path id="Path_61" data-name="Path 61" d="M25.363.5A25.144,25.144,0,0,0,0,25.424,24.965,24.965,0,0,0,17.342,49.071c1.268.235,1.733-.537,1.733-1.2,0-.592-.021-2.16-.032-4.238-7.055,1.5-8.543-3.344-8.543-3.344-1.154-2.877-2.822-3.646-2.822-3.646-2.3-1.545.178-1.513.178-1.513A5.306,5.306,0,0,1,11.741,37.7c2.262,3.811,5.937,2.71,7.387,2.073a5.277,5.277,0,0,1,1.606-3.333C15.1,35.816,9.182,33.673,9.182,24.124a9.522,9.522,0,0,1,2.61-6.687,8.72,8.72,0,0,1,.222-6.6s2.124-.668,6.975,2.555a24.318,24.318,0,0,1,12.682,0c4.819-3.223,6.943-2.555,6.943-2.555a8.961,8.961,0,0,1,.254,6.6,9.561,9.561,0,0,1,2.6,6.687c0,9.575-5.929,11.682-11.572,12.295a5.914,5.914,0,0,1,1.712,4.612c0,3.335-.032,6.015-.032,6.825,0,.653.444,1.433,1.744,1.184A24.889,24.889,0,0,0,50.727,25.424,25.148,25.148,0,0,0,25.363.5Z" transform="translate(0 -0.5)" fill="#fff" opacity="0.7"/>
</svg>
