<svg xmlns="http://www.w3.org/2000/svg" width="44.012" height="48.614" viewBox="0 0 44.012 48.614">
  <g id="Group_73" data-name="Group 73" transform="translate(0)" opacity="0.75">
    <path id="Path_71" data-name="Path 71" d="M1711.182,194.632c0,.692-.039,1.383-.062,2.074q-.05,1.242-.1,2.483c-.017.405-.03.81-.059,1.215-.049.7-.109,1.408-.163,2.113-.039.5-.058,1.011-.118,1.513a16.546,16.546,0,0,1-.3,1.922,2.247,2.247,0,0,1-.913,1.232,92.288,92.288,0,0,1-13.008,8.124c-2.027,1.038-4.1,1.986-6.165,2.949a2.675,2.675,0,0,1-2.293-.012,99.457,99.457,0,0,1-10.448-5.318,93.955,93.955,0,0,1-8.585-5.672,2.781,2.781,0,0,1-1.2-2.051c-.075-.838-.183-1.672-.274-2.508a.913.913,0,0,1,.019-.193c-.062-.8-.136-1.594-.184-2.392-.051-.844-.1-1.69-.113-2.536-.028-1.943-.035-3.886-.05-5.829q.049-1.075.1-2.149c.015-.3.035-.607.049-.911.023-.517.028-1.034.069-1.55.055-.693.139-1.384.206-2.077.047-.485.092-.971.127-1.457a2.973,2.973,0,0,1,1.19-2.382l1.2-.854c.725-.514,1.442-1.04,2.178-1.54a96.165,96.165,0,0,1,11.8-6.842c1.315-.642,2.655-1.233,3.984-1.843a2.541,2.541,0,0,1,2.145-.02,96.707,96.707,0,0,1,17.962,10.183.479.479,0,0,1,.058.058c.479.348.978.673,1.432,1.051a2.707,2.707,0,0,1,.906,1.953c.059.664.148,1.325.206,1.988.054.615.082,1.231.127,1.846.03.41.075.819.105,1.229.026.357.044.716.058,1.073.023.591.044,1.181.056,1.772C1711.152,192.395,1711.18,193.513,1711.182,194.632Z" transform="translate(-1667.17 -169.894)" fill="#2fc363"/>
    <path id="Path_72" data-name="Path 72" d="M1881.108,382.056c0-.062.013-.123.013-.185q0-4.958,0-9.917c0-.062-.007-.123-.011-.185q.007-1.717.012-3.434c0-1.047,0-2.093,0-3.175-.257,0-.5-.006-.739,0a.65.65,0,0,1-.647-.367.5.5,0,0,1,.187-.645q1.691-1.42,3.378-2.844c.107-.09.229-.165.343-.246h.41c.637.525,1.276,1.047,1.909,1.576.591.493,1.171,1,1.766,1.485.226.185.348.387.24.656a.694.694,0,0,1-.674.382c-.223.014-.449,0-.7,0v6.461h7.646v-.31q0-3.357,0-6.714c0-.562.182-.725.807-.725h3.883c.584,0,.765.167.765.706q0,5.808,0,11.616c0,.106.009.212.013.319q-.006,2.4-.012,4.795c0,.594,0,1.187,0,1.814.28,0,.542.01.8,0a.551.551,0,0,1,.586.314.511.511,0,0,1-.189.646c-.562.468-1.12.942-1.68,1.413s-1.093.917-1.637,1.377c-.51.431-.7.436-1.214,0q-1.67-1.4-3.335-2.811a.491.491,0,0,1-.172-.624.539.539,0,0,1,.582-.317c.136.01.274,0,.412,0,.405,0,.405,0,.378-.373,0-.053.012-.106.012-.159q0-2.889,0-5.779a1.828,1.828,0,0,0-.022-.2h-7.645c0,.728,0,1.437,0,2.146q0,2,.012,3.994c0,.328-.007.657-.013.985-.008.422-.225.621-.685.622q-2.044,0-4.089,0c-.465,0-.676-.2-.68-.622C1881.115,383.174,1881.112,382.615,1881.108,382.056Z" transform="translate(-1868.405 -349.809)" fill="#fefefe"/>
  </g>
</svg>
