<svg xmlns="http://www.w3.org/2000/svg" width="51.287" height="48.614" viewBox="0 0 51.287 48.614">
  <g id="Group_68" data-name="Group 68" transform="translate(0)">
    <path id="Path_58" data-name="Path 58" d="M51.605,14.293a16.956,16.956,0,0,0-1.192-5.9,11.824,11.824,0,0,0-2.966-4.311,12.713,12.713,0,0,0-4.54-2.8A19.7,19.7,0,0,0,36.684.152C33.938.029,33.067,0,26.1,0S18.266.029,15.53.142a19.656,19.656,0,0,0-6.223,1.13,12.6,12.6,0,0,0-4.55,2.811A11.928,11.928,0,0,0,1.8,8.386a17,17,0,0,0-1.192,5.9c-.13,2.6-.16,3.428-.16,10.029s.03,7.426.15,10.019a16.955,16.955,0,0,0,1.193,5.9A11.948,11.948,0,0,0,4.758,44.54a12.713,12.713,0,0,0,4.54,2.8,19.7,19.7,0,0,0,6.223,1.13c2.735.114,3.608.142,10.572.142s7.836-.028,10.572-.142a19.646,19.646,0,0,0,6.223-1.13,12.8,12.8,0,0,0,7.506-7.113,17.012,17.012,0,0,0,1.192-5.9c.12-2.593.15-3.419.15-10.019s-.01-7.426-.13-10.019ZM46.986,34.141a12.72,12.72,0,0,1-.882,4.511,8.3,8.3,0,0,1-4.87,4.616,14.791,14.791,0,0,1-4.76.835c-2.706.114-3.517.142-10.361.142s-7.666-.028-10.362-.142a14.731,14.731,0,0,1-4.76-.835,7.949,7.949,0,0,1-2.946-1.814A7.531,7.531,0,0,1,6.13,38.661a12.767,12.767,0,0,1-.882-4.511c-.121-2.564-.15-3.334-.15-9.82s.03-7.265.15-9.819A12.713,12.713,0,0,1,6.13,10,7.365,7.365,0,0,1,8.055,7.208,8.02,8.02,0,0,1,11,5.394a14.8,14.8,0,0,1,4.76-.836c2.706-.114,3.518-.142,10.361-.142s7.666.029,10.362.142a14.739,14.739,0,0,1,4.76.836A7.944,7.944,0,0,1,44.19,7.208,7.529,7.529,0,0,1,46.1,10a12.771,12.771,0,0,1,.882,4.511c.12,2.564.15,3.333.15,9.819s-.03,7.246-.15,9.81Zm0,0" transform="translate(-0.448 0)" fill="#af37a0"/>
    <path id="Path_59" data-name="Path 59" d="M138.127,124.5c-7.275,0-13.178,5.3-13.178,11.836s5.9,11.836,13.178,11.836,13.178-5.3,13.178-11.836S145.4,124.5,138.127,124.5Zm0,19.513c-4.72,0-8.548-3.438-8.548-7.678s3.828-7.678,8.548-7.678,8.548,3.438,8.548,7.678S142.847,144.013,138.127,144.013Zm0,0" transform="translate(-112.473 -112.024)" fill="#af37a0"/>
    <path id="Path_60" data-name="Path 60" d="M368.6,91.678a3.077,3.077,0,1,1-3.077-3.076A3.077,3.077,0,0,1,368.6,91.678Zm0,0" transform="translate(-326.174 -80.251)" fill="#af37a0"/>
  </g>
</svg>
