<svg xmlns="http://www.w3.org/2000/svg" width="40.321" height="48" viewBox="0 0 40.321 48">
  <path id="cib-leetcode" d="M30.924,35.863l-5.393,5.21A4.991,4.991,0,0,1,21.883,42.4a4.993,4.993,0,0,1-3.648-1.328L9.57,32.355a5.274,5.274,0,0,1-1.406-3.728A5.06,5.06,0,0,1,9.57,24.978l8.641-8.767a5.05,5.05,0,0,1,3.672-1.289,4.991,4.991,0,0,1,3.648,1.328l5.393,5.21A2.745,2.745,0,0,0,34.8,17.578l-5.21-5.267A10.191,10.191,0,0,0,24.7,9.63l4.931-5a2.69,2.69,0,0,0-.071-3.8,2.7,2.7,0,0,0-3.8-.078L5.548,20.953a10.664,10.664,0,0,0-2.984,7.67,10.867,10.867,0,0,0,2.984,7.753l8.7,8.719A10.6,10.6,0,0,0,21.917,48a10.658,10.658,0,0,0,7.664-2.984L34.8,39.735a2.742,2.742,0,0,0-3.875-3.875Zm9.421-9.838h-20.3a2.7,2.7,0,0,0,0,5.383h20.3a2.7,2.7,0,0,0,0-5.383Z" transform="translate(-2.564 -0.001)"/>
</svg>
