<svg xmlns="http://www.w3.org/2000/svg" width="138.875" height="133.498" viewBox="0 0 138.875 133.498"><defs><style>.a{fill:#347ab8;opacity:0.9;}.b{fill:#fff;font-size:88px;font-family:NowAlt-Bold, Now Alt;font-weight:700;}</style></defs><g transform="translate(-968 -966.503)"><g transform="translate(968 966.503)"><path class="a" d="M72.79,0A13,13,0,0,1,84.037,6.481l19.226,33.175a13,13,0,0,1,0,13.037L84.037,85.868A13,13,0,0,1,72.79,92.349H34.252A13,13,0,0,1,23,85.868L3.778,52.693a13,13,0,0,1,0-13.037L23,6.481A13,13,0,0,1,34.252,0Z" transform="translate(0 53.521) rotate(-30)"/><text class="b" transform="translate(44.27 100.748)"><tspan x="0" y="0">S</tspan></text></g></g></svg>